<?xml version="1.0" encoding="utf-8"?>
<!-- Generator: Adobe Illustrator 16.0.0, SVG Export Plug-In . SVG Version: 6.00 Build 0)  -->
<!DOCTYPE svg PUBLIC "-//W3C//DTD SVG 1.1//EN" "http://www.w3.org/Graphics/SVG/1.1/DTD/svg11.dtd">
<svg version="1.1" id="Calque_1" xmlns="http://www.w3.org/2000/svg" xmlns:xlink="http://www.w3.org/1999/xlink" x="0px" y="0px"
	 width="595.28px" height="595.28px" viewBox="0 0 595.28 595.28" enable-background="new 0 0 595.28 595.28" xml:space="preserve">
<circle fill="#E29946" stroke="#FFFFFF" stroke-miterlimit="10" cx="297.278" cy="299.279" r="285.753"/>
<path fill="#FFFFFF" stroke="#FFFFFF" stroke-miterlimit="10" d="M496.606,301.896c0,112.939-91.561,204.496-204.5,204.496
	c-112.937,0-204.494-91.557-204.494-204.496c0-112.939,91.557-204.495,204.494-204.495
	C405.046,97.401,496.606,188.958,496.606,301.896z"/>
<g>
	<g>
		<path fill="#FFFFFF" d="M53.58,309.198c2.375,1.82,3.57,2.713,5.968,4.462c-0.033,2.178-0.042,3.272-0.042,5.474
			c-7.707-5.601-11.506-8.592-18.974-14.927c0.106-2.699,0.169-4.042,0.323-6.707c8.025-5.188,12.084-7.516,20.257-11.68
			c-0.209,2.12-0.306,3.186-0.482,5.331c-2.549,1.376-3.821,2.089-6.355,3.565C53.88,300.423,53.74,303.319,53.58,309.198z
			 M52.267,295.606c-2.316,1.38-3.471,2.088-5.773,3.554c-1.307,0.833-2.479,1.378-3.622,1.934c-0.002,0.05-0.004,0.075-0.006,0.125
			c1.111,0.715,2.249,1.487,3.385,2.376c2.157,1.794,3.241,2.676,5.419,4.409C51.823,302.982,51.943,300.503,52.267,295.606z"/>
		<path fill="#FFFFFF" d="M58.637,280.406c0.936-2.116,1.897-5.228,2.377-8.565c0.712-4.949-0.096-8.075-2.003-8.522
			c-1.767-0.414-3.201,1.342-4.899,6.318c-2.049,6.004-4.055,9.858-6.747,9.427c-2.975-0.477-4.63-6.182-3.434-13.952
			c0.63-4.093,1.602-6.899,2.395-8.519c0.693,0.754,1.041,1.129,1.738,1.876c-0.562,1.188-1.583,3.661-2.134,7.251
			c-0.831,5.416,0.488,7.823,1.788,8.059c1.781,0.324,2.938-1.968,4.773-7.079c2.25-6.265,4.435-9.031,7.201-8.324
			c2.906,0.743,4.557,5.43,3.305,14.203c-0.512,3.587-1.528,7.473-2.434,9.408C59.791,281.358,59.406,281.042,58.637,280.406z"/>
		<path fill="#FFFFFF" d="M63.013,253.18c1.102-1.894,2.313-4.733,3.063-7.851c1.111-4.625,0.562-7.708-1.299-8.365
			c-1.725-0.609-3.295,0.897-5.389,5.426c-2.526,5.463-4.837,8.878-7.479,8.139c-2.92-0.816-4.104-6.432-2.281-13.688
			c0.96-3.821,2.156-6.385,3.076-7.833c0.628,0.804,0.943,1.205,1.575,2.002c-0.655,1.063-1.871,3.301-2.711,6.654
			c-1.268,5.057-0.152,7.502,1.123,7.885c1.745,0.525,3.083-1.51,5.325-6.154c2.749-5.694,5.147-8.077,7.842-7.066
			c2.831,1.062,4.091,5.744,2.132,13.942c-0.801,3.351-2.127,6.919-3.187,8.646C64.083,254.226,63.727,253.878,63.013,253.18z"/>
		<path fill="#FFFFFF" d="M73.942,196.452c5.981,3.285,6.307,11.293,3.302,19.378c-3.11,8.368-8.661,13.108-14.184,10.93
			c-5.794-2.285-7.484-10.936-4.06-20.091C62.5,197.31,68.787,193.62,73.942,196.452z M64.498,222.003
			c3.874,1.617,8.535-0.803,10.954-7.292c2.437-6.537,0.697-11.793-3.28-13.883c-3.483-1.831-8.637-0.393-11.368,6.93
			C58.09,215.028,60.516,220.341,64.498,222.003z"/>
		<path fill="#FFFFFF" d="M95.16,176.063c-0.387,1.573-1.53,4.438-3.404,7.859c-4.345,7.928-10.29,12.557-15.947,9.341
			c-5.402-3.07-5.98-12.088-0.771-21.507c2.094-3.785,3.921-5.797,4.811-6.594c0.469,0.854,0.705,1.281,1.179,2.13
			c-1.236,1.161-2.729,3.022-4.114,5.524c-3.909,7.058-3.68,13.542,0.811,16.204c4.187,2.481,8.837-0.161,12.642-7.042
			c1.229-2.224,2.249-4.634,2.685-6.361C93.895,175.792,94.317,175.881,95.16,176.063z"/>
		<path fill="#FFFFFF" d="M84.614,156.462c6.375,4.877,9.562,7.314,15.938,12.191c-0.886,1.358-1.324,2.042-2.189,3.422
			c-6.447-4.765-9.668-7.147-16.115-11.913C83.184,158.67,83.657,157.93,84.614,156.462z"/>
		<path fill="#FFFFFF" d="M102.576,154.632c1.156,2.701,1.748,4.041,2.955,6.703c-0.96,1.354-1.435,2.036-2.375,3.414
			c-3.9-8.509-5.722-12.869-9.084-21.773c1.251-1.661,1.885-2.484,3.166-4.11c8.802,1.842,13.135,2.94,21.637,5.465
			c-1.1,1.27-1.645,1.912-2.725,3.207c-2.682-0.747-4.031-1.104-6.743-1.783C106.603,149.219,105.236,150.995,102.576,154.632z
			 M107.378,145.031c-2.491-0.603-3.742-0.89-6.257-1.436c-1.427-0.309-2.622-0.717-3.794-1.102
			c-0.024,0.031-0.036,0.046-0.06,0.077c0.599,1.18,1.195,2.415,1.739,3.722c0.987,2.551,1.49,3.82,2.522,6.339
			C103.816,149.529,104.987,148.009,107.378,145.031z"/>
		<path fill="#FFFFFF" d="M110.828,126.326c-2.674,2.903-3.985,4.389-6.556,7.425c-0.64-0.615-0.961-0.922-1.602-1.538
			c6.31-7.451,9.627-10.979,16.533-17.638c0.586,0.673,0.878,1.01,1.464,1.683c-2.827,2.726-4.217,4.123-6.947,6.983
			c4.938,5.272,7.407,7.907,12.346,13.178c-1.088,1.14-1.626,1.714-2.697,2.877C118.353,134.108,115.844,131.515,110.828,126.326z"
			/>
		<path fill="#FFFFFF" d="M124.878,109.278c5.167,6.292,7.751,9.437,12.919,15.728c-1.143,1.033-1.709,1.554-2.836,2.609
			c-5.26-6.206-7.891-9.309-13.15-15.516C123.03,110.958,123.643,110.394,124.878,109.278z"/>
		<path fill="#FFFFFF" d="M157.393,96.52c3.745,5.961,0.616,12.51-5.363,17.081c-6.187,4.73-12.905,5.116-16.724,0.275
			c-4.006-5.078-1.853-12.611,4.937-17.781C147.184,90.809,154.165,91.38,157.393,96.52z M138.522,111.071
			c2.642,3.463,7.636,4.305,12.442,0.638c4.841-3.694,5.58-8.836,3.049-12.726c-2.216-3.406-7.26-5.153-12.683-1.016
			C135.944,102.075,135.807,107.512,138.522,111.071z"/>
		<path fill="#FFFFFF" d="M167.055,102.661c-4.219-7.015-6.33-10.522-10.548-17.538c1.504-0.964,2.261-1.438,3.78-2.374
			c5.531,1.458,8.251,2.265,13.591,4.024c3.091,1.019,5.597,2.12,7.782,3.335c0.025-0.028,0.041-0.04,0.066-0.068
			c-1.542-2.279-2.752-4.461-4.194-7.31c-1.549-3.061-2.325-4.591-3.875-7.653c1.354-0.722,2.033-1.076,3.396-1.776
			c3.602,7.37,5.404,11.053,9.007,18.421c-1.354,0.695-2.027,1.048-3.37,1.766c-5.15-1.964-7.778-2.877-13.127-4.554
			c-2.935-0.917-5.859-1.876-8.317-2.96c-0.042,0.04-0.063,0.061-0.105,0.101c1.5,2.107,2.814,4.186,4.526,7.125
			c1.761,3.024,2.643,4.536,4.404,7.56C168.859,101.51,168.255,101.891,167.055,102.661z"/>
		<path fill="#FFFFFF" d="M192.511,66.313c2.172-1.202,4.814-2.501,7.807-3.673c5.42-2.124,9.645-2.62,12.733-1.907
			c3.127,0.723,5.356,2.515,6.335,5.692c0.988,3.205,0.336,6.276-1.656,8.944c-2.003,2.682-5.876,5.141-11.115,7.224
			c-2.479,0.985-4.577,1.767-6.377,2.377C197.147,77.506,195.602,73.777,192.511,66.313z M202.94,81.615
			c0.929-0.251,2.227-0.747,3.599-1.288c7.511-2.958,10.681-7.292,8.997-12.552c-1.471-4.595-6.383-6.334-14.303-3.238
			c-1.938,0.757-3.349,1.466-4.274,2.014C199.351,72.576,200.548,75.589,202.94,81.615z"/>
		<path fill="#FFFFFF" d="M239.594,62.083c-4.555,1.045-6.822,1.621-11.326,2.875c0.777,2.861,1.165,4.292,1.941,7.152
			c4.878-1.358,7.334-1.975,12.273-3.08c0.19,0.87,0.287,1.305,0.477,2.175c-6.354,1.422-9.511,2.239-15.761,4.084
			c-2.27-7.902-3.408-11.851-5.677-19.754c6.489-1.916,9.765-2.769,16.359-4.263c0.193,0.87,0.29,1.306,0.483,2.175
			c-4.977,1.128-7.453,1.751-12.372,3.121c0.681,2.508,1.021,3.762,1.702,6.27c4.542-1.265,6.827-1.846,11.419-2.899
			C239.305,60.797,239.401,61.226,239.594,62.083z"/>
		<path fill="#FFFFFF" d="M246.561,67.125c1.806,0.376,4.336,0.502,6.894,0.049c3.791-0.672,5.809-2.41,5.502-4.462
			c-0.284-1.902-2.052-2.821-6.189-3.133c-4.976-0.375-8.37-1.384-8.945-4.225c-0.636-3.14,2.845-6.33,8.85-7.336
			c3.162-0.53,5.536-0.378,6.981-0.058c-0.321,0.921-0.481,1.381-0.795,2.303c-1.051-0.217-3.192-0.519-5.966-0.052
			c-4.183,0.703-5.455,2.682-5.197,4.062c0.354,1.89,2.357,2.444,6.653,2.839c5.266,0.484,8.04,1.836,8.442,4.831
			c0.422,3.146-2.499,6.244-9.213,7.44c-2.744,0.489-5.839,0.518-7.506,0.118C246.263,68.55,246.361,68.075,246.561,67.125z"/>
		<path fill="#FFFFFF" d="M282.458,45.057c1.612-0.088,2.419-0.126,4.032-0.19c0.216,5.502,0.327,8.251,0.543,13.753
			c0.215,5.459-3.493,7.267-8.452,7.639c-1.368,0.103-3.053,0.031-4.018-0.156c0.145-0.884,0.219-1.325,0.368-2.209
			c0.796,0.144,1.93,0.23,3.181,0.135c3.365-0.256,5.297-1.417,5.079-5.441C282.898,53.175,282.75,50.47,282.458,45.057z"/>
		<path fill="#FFFFFF" d="M308.924,55.839c-4.665-0.209-6.999-0.261-11.669-0.261c0,2.967,0,4.45,0,7.417
			c5.058,0,7.587,0.063,12.639,0.315c-0.044,0.89-0.064,1.335-0.108,2.225c-6.5-0.325-9.757-0.382-16.265-0.285
			c-0.119-8.229-0.185-12.341-0.306-20.569c6.756-0.101,10.138-0.046,16.887,0.274c-0.042,0.89-0.061,1.335-0.103,2.226
			c-5.095-0.242-7.646-0.301-12.747-0.301c0,2.6,0.002,3.9,0.002,6.5c4.708,0,7.064,0.052,11.769,0.263
			C308.984,54.521,308.963,54.961,308.924,55.839z"/>
		<path fill="#FFFFFF" d="M320.055,45.612c-0.405,4.854-0.604,7.281-1.009,12.135c-0.382,4.593,2.343,6.769,6.21,7.202
			c4.298,0.48,7.313-1.108,7.936-5.612c0.667-4.824,1-7.234,1.668-12.059c1.618,0.228,2.426,0.347,4.04,0.599
			c-0.729,4.742-1.091,7.112-1.818,11.853c-0.958,6.244-5.97,8.053-12.191,7.36c-5.88-0.654-10.165-3.339-9.73-9.703
			c0.33-4.835,0.492-7.252,0.823-12.088C317.612,45.412,318.427,45.474,320.055,45.612z"/>
		<path fill="#FFFFFF" d="M342.167,69.29c1.458-8.1,2.182-12.146,3.637-20.243c1.735,0.318,2.602,0.485,4.332,0.832
			c3.131,4.872,4.616,7.33,7.421,12.282c1.622,2.867,2.759,5.395,3.584,7.789c0.036-0.003,0.058-0.005,0.094-0.009
			c0.346-2.748,0.873-5.194,1.663-8.298c0.849-3.334,1.272-5,2.123-8.335c1.474,0.385,2.209,0.583,3.678,0.989
			c-2.143,7.94-3.206,11.907-5.353,19.849c-1.458-0.403-2.188-0.599-3.652-0.979c-2.53-4.972-3.879-7.444-6.738-12.348
			c-1.571-2.688-3.106-5.402-4.213-7.89c-0.057,0.001-0.084,0.001-0.141,0.003c-0.267,2.591-0.652,5.036-1.303,8.391
			c-0.669,3.451-1.002,5.174-1.673,8.626C344.244,69.675,343.552,69.543,342.167,69.29z"/>
		<path fill="#FFFFFF" d="M387.115,71.755c-4.383-1.647-6.594-2.419-11.045-3.856c-0.887,2.828-1.332,4.243-2.22,7.071
			c4.821,1.557,7.214,2.398,11.952,4.209c-0.309,0.835-0.461,1.253-0.77,2.088c-6.097-2.33-9.187-3.389-15.419-5.295
			c2.349-7.884,3.516-11.821,5.861-19.702c6.471,1.979,9.678,3.074,16.014,5.475c-0.306,0.836-0.458,1.255-0.764,2.09
			c-4.782-1.812-7.197-2.658-12.059-4.228c-0.777,2.479-1.162,3.719-1.939,6.198c4.488,1.45,6.717,2.226,11.136,3.887
			C387.563,70.517,387.415,70.93,387.115,71.755z"/>
		<path fill="#FFFFFF" d="M390.249,79.843c1.313,1.318,3.37,2.829,5.758,3.872c3.542,1.547,6.169,1.219,7.016-0.671
			c0.784-1.751-0.203-3.508-3.508-6.073c-3.974-3.084-6.279-5.812-5.234-8.512c1.154-2.984,5.791-3.727,11.369-1.225
			c2.939,1.319,4.849,2.771,5.891,3.847c-0.765,0.591-1.144,0.889-1.902,1.485c-0.767-0.77-2.401-2.22-4.979-3.374
			c-3.888-1.741-6.022-0.789-6.548,0.511c-0.719,1.78,0.664,3.355,4.058,6.082c4.159,3.339,5.756,6.024,4.482,8.757
			c-1.338,2.87-5.456,3.826-11.731,1.093c-2.567-1.118-5.177-2.811-6.361-4.071C389.231,80.874,389.57,80.529,390.249,79.843z"/>
		<path fill="#FFFFFF" d="M426.509,78.479c2.271,1.01,4.915,2.342,7.676,4.04c5.002,3.076,8.014,6.204,9.387,9.158
			c1.39,2.989,1.396,5.911-0.437,8.662c-1.85,2.775-4.616,4.131-7.907,4.15c-3.309,0.02-7.612-1.612-12.47-4.564
			c-2.298-1.396-4.202-2.607-5.789-3.683C420.79,89.133,422.692,85.583,426.509,78.479z M421.229,96.351
			c0.77,0.595,1.956,1.337,3.226,2.115c6.941,4.25,12.246,4.171,15.243-0.434c2.617-4.021,0.897-9.102-6.406-13.601
			c-1.786-1.1-3.209-1.803-4.204-2.212C425.943,87.871,424.377,90.696,421.229,96.351z"/>
		<path fill="#FFFFFF" d="M459.033,114.292c-3.63-3.139-5.481-4.656-9.246-7.585c-1.717,2.392-2.573,3.588-4.291,5.98
			c4.078,3.173,6.078,4.823,9.993,8.25c-0.551,0.69-0.825,1.034-1.376,1.724c-5.038-4.408-7.633-6.507-12.939-10.493
			c4.668-6.711,6.992-10.063,11.658-16.771c5.509,4.138,8.204,6.312,13.445,10.871c-0.549,0.691-0.823,1.037-1.372,1.728
			c-3.956-3.441-5.978-5.101-10.089-8.3c-1.505,2.096-2.254,3.144-3.758,5.24c3.796,2.954,5.662,4.483,9.322,7.648
			C459.842,113.267,459.572,113.609,459.033,114.292z"/>
		<path fill="#FFFFFF" d="M478.198,117.373c1.188,1.184,1.778,1.781,2.948,2.989c-2.659,2.874-3.987,4.31-6.645,7.183
			c0.039,0.04,0.06,0.061,0.099,0.101c1.114,0.027,2.189,0.108,3.194,0.209c4.755,0.601,7.146,0.974,11.952,1.875
			c1.384,1.59,2.069,2.394,3.424,4.021c-5.553-1.317-8.319-1.868-13.816-2.771c0.104,6.992,0.039,10.462-0.313,17.33
			c-1.19-1.441-1.792-2.155-3.007-3.564c0.228-5.815,0.258-8.747,0.157-14.649c-1.431-0.22-2.145-0.324-3.57-0.517
			c-2.102,2.272-3.151,3.409-5.254,5.683c-1.082-1.118-1.628-1.671-2.727-2.766C470.067,126.443,472.772,123.422,478.198,117.373z"
			/>
		<path fill="#FFFFFF" d="M489.047,150.716c-2.703,0.631-4.048,0.963-6.725,1.661c-1.016-1.29-1.529-1.928-2.564-3.194
			c8.549-2.29,12.895-3.266,21.728-4.858c1.241,1.673,1.854,2.518,3.066,4.226c-3.563,8.855-5.475,13.186-9.565,21.632
			c-0.938-1.462-1.41-2.187-2.37-3.623c1.248-2.668,1.858-4.013,3.054-6.722C493.095,156.103,491.77,154.278,489.047,150.716z
			 M496.762,157.862c1.079-2.492,1.609-3.747,2.645-6.271c0.587-1.434,1.216-2.597,1.817-3.745
			c-0.023-0.032-0.035-0.047-0.059-0.079c-1.205,0.37-2.458,0.724-3.765,1.01c-2.535,0.48-3.797,0.736-6.31,1.275
			C493.413,153.113,494.547,154.676,496.762,157.862z"/>
		<path fill="#FFFFFF" d="M513.664,162.356c0.923,1.506,1.377,2.266,2.277,3.796c-3.162,2.212-4.74,3.318-7.9,5.529
			c0.029,0.05,0.045,0.075,0.074,0.125c1.082,0.322,2.113,0.689,3.071,1.055c4.515,1.863,6.77,2.878,11.272,5.084
			c1.031,1.99,1.539,2.994,2.534,5.021c-5.146-2.847-7.73-4.148-12.907-6.524c-1.289,7.125-2.041,10.641-3.752,17.558
			c-0.872-1.794-1.315-2.683-2.219-4.445c1.378-5.862,1.991-8.834,3.064-14.845c-1.351-0.601-2.023-0.895-3.375-1.465
			c-2.499,1.749-3.75,2.625-6.25,4.374c-0.833-1.416-1.256-2.118-2.109-3.511C503.934,169.406,507.174,167.057,513.664,162.356z"/>
		<path fill="#FFFFFF" d="M517.592,199.197c-2.757-0.097-4.133-0.125-6.877-0.143c-0.731-1.598-1.103-2.392-1.858-3.966
			c8.778-0.017,13.206,0.173,22.122,0.98c0.874,2.063,1.304,3.102,2.142,5.2c-5.24,8.127-7.972,12.063-13.644,19.652
			c-0.618-1.781-0.936-2.666-1.581-4.421c1.749-2.406,2.613-3.623,4.319-6.082C520.457,205.843,519.531,203.6,517.592,199.197z
			 M523.673,208.684c1.549-2.266,2.315-3.41,3.828-5.719c0.858-1.312,1.701-2.335,2.517-3.349c-0.016-0.039-0.023-0.058-0.039-0.097
			c-1.247,0.045-2.537,0.063-3.867-0.006c-2.563-0.209-3.843-0.295-6.396-0.434C521.364,202.858,522.156,204.779,523.673,208.684z"
			/>
		<path fill="#FFFFFF" d="M521.079,225.694c7.252-3.03,10.873-4.544,18.13-7.573c0.649,1.997,0.967,3.003,1.584,5.029
			c-2.293,6.062-3.51,9.043-6.067,14.895c-1.481,3.386-2.939,6.073-4.452,8.349c0.021,0.039,0.03,0.059,0.052,0.097
			c2.388-1.195,4.625-2.018,7.524-2.929c3.114-0.979,4.671-1.468,7.788-2.447c0.433,1.834,0.645,2.757,1.052,4.613
			c-7.481,2.201-11.216,3.301-18.691,5.503c-0.404-1.842-0.615-2.758-1.047-4.577c2.727-5.617,4.029-8.484,6.503-14.321
			c1.354-3.204,2.743-6.364,4.167-8.938c-0.03-0.058-0.044-0.086-0.074-0.145c-2.219,1.18-4.379,2.153-7.408,3.357
			c-3.116,1.239-4.676,1.858-7.792,3.097C521.851,228.091,521.598,227.289,521.079,225.694z"/>
		<path fill="#FFFFFF" d="M548.21,254.478c0.803,3.001,1.621,6.641,2.25,10.731c1.14,7.41,0.905,13.018-0.271,16.833
			c-1.192,3.866-3.231,6.284-6.331,6.667c-3.127,0.386-5.843-1.344-7.979-4.685c-2.143-3.351-3.785-9.036-4.922-16.186
			c-0.538-3.383-0.955-6.199-1.262-8.587C537.101,257.341,540.798,256.387,548.21,254.478z M532.419,263.485
			c0.095,1.226,0.359,2.982,0.651,4.858c1.598,10.258,5.056,15.665,10.189,14.952c4.482-0.623,6.951-6.606,5.293-17.437
			c-0.405-2.648-0.852-4.604-1.223-5.903C541.363,261.367,538.383,262.072,532.419,263.485z"/>
		<path fill="#FFFFFF" d="M544.071,317.232c-0.033-6.627-0.126-9.889-0.448-16.306c-2.772,0.205-4.157,0.309-6.929,0.514
			c0.35,6.95,0.438,10.489,0.438,17.693c-0.834,0-1.252,0-2.086,0c0-9.27-0.149-13.798-0.73-22.644
			c7.679-0.734,11.518-1.102,19.205-1.836c0.603,9.185,0.765,13.882,0.789,23.488c-0.835,0.003-1.254,0.006-2.089,0.009
			c-0.019-7.251-0.114-10.815-0.467-17.824c-2.432,0.18-3.648,0.27-6.078,0.449c0.325,6.471,0.419,9.758,0.453,16.439
			C545.306,317.223,544.895,317.226,544.071,317.232z"/>
	</g>
</g>
<g>
	<g>
		<path fill="#FFFFFF" d="M259.008,515.196c0.549,18.79,2.253,37.122,5.133,55.698c-2.757-0.447-4.132-0.694-6.877-1.229
			c-1.119-7.94-1.565-11.912-2.232-19.834c-4.813-1.089-7.208-1.706-11.964-3.093c-4.421,6.606-6.737,9.862-11.571,16.263
			c-2.693-0.873-4.034-1.334-6.705-2.296c11.584-14.825,21.995-30.007,31.597-46.187
			C257.435,514.798,257.959,514.934,259.008,515.196z M254.507,542.597c-0.338-5.242-0.457-7.859-0.597-13.082
			c-2.644,4.503-4.015,6.737-6.844,11.16C250.031,541.504,251.521,541.887,254.507,542.597z"/>
		<path fill="#FFFFFF" d="M312.012,561.889c0.222,3.698-0.523,6.64-2.318,8.777c-1.914,2.279-4.38,3.462-7.295,3.5
			c-2.895,0.038-5.37-1.075-7.333-3.292c-1.964-2.217-2.836-5.15-2.713-8.764c1.995-0.79,2.982-1.197,4.938-2.034
			c0.517,3.399,1.242,5.491,2.103,6.272c0.65,0.591,1.534,0.905,2.639,0.893c0.049-0.001,0.072-0.001,0.121-0.002
			c1.166-0.036,2.15-0.474,2.858-1.294c0.595-0.688,0.851-2.068,0.79-4.076c-0.418-13.922-0.837-27.844-1.256-41.766
			c1.982-0.06,2.973-0.104,4.953-0.222C310.337,533.884,311.17,547.887,312.012,561.889z"/>
		<path fill="#FFFFFF" d="M345.075,543.085c2.358,9.832,3.538,14.748,5.896,24.58c-2.564,0.615-3.851,0.905-6.429,1.442
			c-3.646-17.48-7.288-34.962-10.932-52.442c1.951-0.407,2.924-0.624,4.865-1.09c1.574,6.563,2.361,9.845,3.936,16.408
			c2.33-7.5,3.309-11.268,4.885-18.782c2.431-0.726,3.642-1.11,6.051-1.931c-1.675,9.878-2.833,14.847-5.786,24.734
			c8.224,8.925,17.161,17.179,26.684,24.7c-3.034,1.093-4.562,1.61-7.624,2.589c-7.534-6.489-14.651-13.46-21.297-20.855
			C345.225,542.697,345.176,542.826,345.075,543.085z"/>
	</g>
</g>
<g>
	<g>
		<path fill="#E39947" d="M139.818,274.956c-1.155,6.081,5.85,17.981,11.839,20.276c23.723,9.099,35.332,29.204,47.894,48.307
			c5.266,7.975,9.066,6.374,13.979,1.897c5.465-5.021,13.147-10.069,14.825-16.398c6.173-23.689,27.111-15.947,41.675-21.185
			c24.077-8.666,32.698,11.718,40.733,26.188c7.529,13.533,15.41,29.82,2.913,47.847c42.411-13.5,59.329-12.315,56.869,34.315
			c-0.527,10.194,9.079,10.331,13.239,11.748c16.334,5.543,21.044-25.003,41.64-14.703c3.419,1.695,4.405-11.423,7.469-17.305
			c1.325-2.615,1.599-4.726-0.03-8.005c-6.45-12.838-5.974-13.885,8.791-11.605c6.143,0.953,10.574-2.464,7.404-4.714
			c-15.644-11.13,1.847-34.729-17.643-43.813c-2.125-0.968-3.587-7.496-2.481-10.348c5.651-14.759,0.202-25.876-4.753-40.408
			c-8.423-24.91-23.571-46.34-31.146-71.373c-2.632-8.651-10.316-22.924-21.938-2.74c-3.88,6.727-15.503,13.733-27.265,6.681
			c-14.733-8.806-29.436,13.533-46.385,0.602c-2.51-1.926-15.071,7.034-13.933-8.808c0.4-5.479-5.203-4.757-8.391-4.109
			c-26.634,5.265-51.25-2.064-76.067-10.439c-10.576-3.572-29.944,16.519-24.169,24.939c10.822,15.78,3.325,16.689-10.069,18.597
			c-16.503,2.386-29.158,9.238-38.55,26.095C115.125,276.665,142.128,262.379,139.818,274.956z"/>
	</g>
	<g>
	</g>
	<g>
	</g>
	<g>
	</g>
	<g>
	</g>
	<g>
	</g>
	<g>
	</g>
	<g>
	</g>
	<g>
	</g>
	<g>
	</g>
	<g>
	</g>
	<g>
	</g>
	<g>
	</g>
	<g>
	</g>
	<g>
	</g>
	<g>
	</g>
</g>
</svg>
